/* XPM */
static char *result[] = {
/* columns rows colors chars-per-pixel */
"10 27 16 1 ",
"  c #C2B8A8",
". c #E0D6BA",
"X c #E2D9BE",
"o c #E4DBC2",
"O c #E6DEC6",
"+ c #E8E1CA",
"@ c #EAE3CE",
"# c #ECE6D2",
"$ c #EEE8D6",
"% c #F0EBDA",
"& c #F2EDDE",
"* c #F4F0E2",
"= c #F6F2E6",
"- c #F7F4EA",
"; c #FCFAF6",
": c None",
/* pixels */
":::::     ",
":::  ;;;;;",
":: ==-----",
": ********",
": &&&&&&&&",
" %%%%%%%%%",
" $$$$$$$$$",
" #########",
" @@@@@@@@@",
" +++++++++",
" OOOOOOOOO",
" ooooooooo",
" XXXXXXXXX",
" .........",
" .........",
" .........",
" .........",
" .........",
" .........",
" .........",
" .........",
" .........",
" .........",
" .........",
" .........",
" .........",
" ........."
};
