/* XPM */
static char *result[] = {
/* columns rows colors chars-per-pixel */
"10 27 29 1 ",
"  c #C2B8A8",
". c #E0D7BB",
"X c #E1D8BD",
"o c #E2D9BF",
"O c #E3DAC1",
"+ c #E4DCC3",
"@ c #E5DDC5",
"# c #E6DEC7",
"$ c #E7DFC9",
"% c #E8E1CB",
"& c #E9E2CD",
"* c #EAE3CF",
"= c #EBE4D1",
"- c #ECE5D3",
"; c #EDE7D4",
": c #EEE8D6",
"> c #EFE9D8",
", c #F0EADA",
"< c #F1ECDC",
"1 c #F2EDDE",
"2 c #F3EEE0",
"3 c #F4EFE2",
"4 c #F5F0E4",
"5 c #F6F2E6",
"6 c #F7F3E8",
"7 c #F8F4EA",
"8 c #F9F6ED",
"9 c #FCFAF6",
"0 c None",
/* pixels */
"00000     ",
"000  99999",
"00 7788888",
"0 66666666",
"0 55555555",
" 444444444",
" 333333333",
" 222222222",
" 111111111",
" <<<<<<<<<",
" ,,,,,,,,,",
" >>>>>>>>>",
" :::::::::",
" ;;;;;;;;;",
" ---------",
" =========",
" *********",
" &&&&&&&&&",
" %%%%%%%%%",
" $$$$$$$$$",
" #########",
" @@@@@@@@@",
" +++++++++",
" OOOOOOOOO",
" ooooooooo",
" XXXXXXXXX",
" ........."
};
